# xmcd
#
# Track frame offsets: 
#        150
#        19163
#        32369
#        53514
#        72742
#
# Disc length: 1141 seconds
#
# Revision: 0
# Processed by: cddbd v1.5.2PL0 Copyright (c) Steve Scherf et al.
# Submitted via: ExactAudioCopy v1.0b3
#
DISCID=39047305
DTITLE=Skylar Laine - American Idol Season 11 Highlights
DYEAR=2012
DGENRE=Country
TTITLE0=Where Do Broken Hearts Go
TTITLE1=Gunpowder and Lead
TTITLE2=Wind Beneath My Wings
TTITLE3=Didn't You Know How Much I Loved You
TTITLE4=Islands in the Stream
EXTD=
EXTT0=
EXTT1=
EXTT2=
EXTT3=
EXTT4=
PLAYORDER=
